<svg xmlns="http://www.w3.org/2000/svg" viewBox="0 0 100 100" fill="none" width="100%" height="100%">
  <!-- Shield Outlines -->
  <path d="M50 12 C70 12, 82 15, 82 34 C82 52, 70 66, 50 75 C30 66, 18 52, 18 34 C18 15, 30 12, 50 12 Z" stroke="#10b981" stroke-width="2" stroke-linejoin="round" fill="none"/>
  <path d="M50 15 C67 15, 78 18, 78 34 C78 50, 67 63, 50 71 C33 63, 22 50, 22 34 C22 18, 33 15, 50 15 Z" stroke="#10b981" stroke-width="0.8" stroke-linejoin="round" fill="none"/>
  
  <!-- "KA" Outline (using strokes for high rendering quality) -->
  <path d="M29 29 V46 M29 37 L38 29 M32 39 L39 46" stroke="#10b981" stroke-width="3.5" stroke-linecap="round" stroke-linejoin="round"/>
  <path d="M44 46 L49 29 L54 46 M46 41 H52" stroke="#10b981" stroke-width="3.5" stroke-linecap="round" stroke-linejoin="round"/>

  <!-- Sprout Icon -->
  <path d="M59 46 H71" stroke="#10b981" stroke-width="2" stroke-linecap="round"/>
  <path d="M65 46 V39" stroke="#10b981" stroke-width="2" stroke-linecap="round"/>
  
  <!-- Left Leaf -->
  <path d="M65 39 C61 39, 58 36, 58 33 C58 30, 61 29, 65 33 C65 33, 65 39, 65 39 Z" stroke="#10b981" stroke-width="1.8" stroke-linejoin="round" fill="none"/>
  <!-- Right Leaf -->
  <path d="M65 37 C65 37, 72 37, 72 31 C72 28, 69 27, 65 33" stroke="#10b981" stroke-width="1.8" stroke-linejoin="round" fill="none"/>
  
  <!-- "FARM" Text -->
  <text x="50" y="61" fill="#059669" font-family="'Inter', system-ui, sans-serif" font-weight="900" font-size="12.5" text-anchor="middle" letter-spacing="1">FARM</text>
</svg>
